<mxfile host="app.diagrams.net" agent="Mozilla/5.0 (Windows NT 10.0; Win64; x64) AppleWebKit/537.36 (KHTML, like Gecko) Chrome/135.0.0.0 Safari/537.36" version="26.2.14">
  <diagram name="Sayfa -1" id="Bh9MS0Y4QI0ne9ftl27I">
    <mxGraphModel dx="1042" dy="630" grid="1" gridSize="10" guides="1" tooltips="1" connect="1" arrows="1" fold="1" page="1" pageScale="1" pageWidth="826" pageHeight="1169" math="0" shadow="0">
      <root>
        <mxCell id="0" />
        <mxCell id="1" parent="0" />
        <mxCell id="0iHUblSR0ziEXPs0jCyR-1" value="&lt;font style=&quot;font-size: 16px;&quot;&gt;0&lt;/font&gt;" style="swimlane;whiteSpace=wrap;html=1;fillColor=#ffe6cc;strokeColor=#d79b00;startSize=23;" parent="1" vertex="1">
          <mxGeometry x="310" y="500" width="160" height="110" as="geometry" />
        </mxCell>
        <mxCell id="0iHUblSR0ziEXPs0jCyR-2" value="&lt;b&gt;&lt;font style=&quot;font-size: 25px;&quot;&gt;Zerobite&lt;/font&gt;&lt;/b&gt;" style="text;html=1;align=center;verticalAlign=middle;resizable=0;points=[];autosize=1;strokeColor=none;fillColor=none;" parent="0iHUblSR0ziEXPs0jCyR-1" vertex="1">
          <mxGeometry x="25" y="45" width="120" height="40" as="geometry" />
        </mxCell>
        <mxCell id="kWebN6xR-7z7xlQ7EnBQ-1" value="&lt;font style=&quot;font-size: 14px;&quot;&gt;&lt;b style=&quot;&quot;&gt;Kullanıcılar&lt;/b&gt;&lt;/font&gt;" style="html=1;dashed=0;whiteSpace=wrap;shape=mxgraph.dfd.externalEntity;fillColor=#dae8fc;strokeColor=#6c8ebf;" parent="1" vertex="1">
          <mxGeometry x="30" y="320" width="100" height="100" as="geometry" />
        </mxCell>
        <mxCell id="kWebN6xR-7z7xlQ7EnBQ-3" value="&lt;font style=&quot;font-size: 14px;&quot;&gt;&lt;b&gt;İşletmeler&lt;/b&gt;&lt;/font&gt;" style="html=1;dashed=0;whiteSpace=wrap;shape=mxgraph.dfd.externalEntity;fillColor=#dae8fc;strokeColor=#6c8ebf;" parent="1" vertex="1">
          <mxGeometry x="690" y="320" width="100" height="100" as="geometry" />
        </mxCell>
        <mxCell id="kWebN6xR-7z7xlQ7EnBQ-4" value="&lt;font style=&quot;font-size: 14px;&quot;&gt;&lt;b&gt;Banka&lt;/b&gt;&lt;/font&gt;" style="html=1;dashed=0;whiteSpace=wrap;shape=mxgraph.dfd.externalEntity;fillColor=#dae8fc;strokeColor=#6c8ebf;" parent="1" vertex="1">
          <mxGeometry x="30" y="690" width="100" height="100" as="geometry" />
        </mxCell>
        <mxCell id="kWebN6xR-7z7xlQ7EnBQ-5" value="&lt;b&gt;&lt;font style=&quot;font-size: 14px;&quot;&gt;Tarım ve Orman Bakanlığı&lt;/font&gt;&lt;/b&gt;" style="html=1;dashed=0;whiteSpace=wrap;shape=mxgraph.dfd.externalEntity;fillColor=#dae8fc;strokeColor=#6c8ebf;" parent="1" vertex="1">
          <mxGeometry x="690" y="690" width="100" height="100" as="geometry" />
        </mxCell>
        <mxCell id="YUiGV4XtN_cpStMNXlWl-17" value="" style="endArrow=none;html=1;rounded=0;" parent="1" edge="1">
          <mxGeometry relative="1" as="geometry">
            <mxPoint x="650" y="370" as="sourcePoint" />
            <mxPoint x="690" y="370" as="targetPoint" />
          </mxGeometry>
        </mxCell>
        <mxCell id="YUiGV4XtN_cpStMNXlWl-18" value="" style="endArrow=none;html=1;rounded=0;" parent="1" edge="1">
          <mxGeometry relative="1" as="geometry">
            <mxPoint x="130" y="380" as="sourcePoint" />
            <mxPoint x="160" y="380" as="targetPoint" />
          </mxGeometry>
        </mxCell>
        <mxCell id="YUiGV4XtN_cpStMNXlWl-19" value="" style="endArrow=none;html=1;rounded=0;" parent="1" edge="1">
          <mxGeometry relative="1" as="geometry">
            <mxPoint x="290" y="380" as="sourcePoint" />
            <mxPoint x="330" y="380" as="targetPoint" />
          </mxGeometry>
        </mxCell>
        <mxCell id="YUiGV4XtN_cpStMNXlWl-20" value="" style="endArrow=none;html=1;rounded=0;" parent="1" edge="1">
          <mxGeometry relative="1" as="geometry">
            <mxPoint x="650" y="740" as="sourcePoint" />
            <mxPoint x="690" y="739.5" as="targetPoint" />
          </mxGeometry>
        </mxCell>
        <mxCell id="YUiGV4XtN_cpStMNXlWl-38" value="&lt;br&gt;&lt;div&gt;&lt;span style=&quot;font-size: 15px;&quot;&gt;&lt;br&gt;&lt;/span&gt;&lt;/div&gt;" style="edgeLabel;html=1;align=center;verticalAlign=middle;resizable=0;points=[];" parent="YUiGV4XtN_cpStMNXlWl-20" vertex="1" connectable="0">
          <mxGeometry x="0.0416" y="-1" relative="1" as="geometry">
            <mxPoint as="offset" />
          </mxGeometry>
        </mxCell>
        <mxCell id="YUiGV4XtN_cpStMNXlWl-21" value="" style="endArrow=none;html=1;rounded=0;" parent="1" edge="1">
          <mxGeometry relative="1" as="geometry">
            <mxPoint x="130" y="739.5" as="sourcePoint" />
            <mxPoint x="360" y="740" as="targetPoint" />
          </mxGeometry>
        </mxCell>
        <mxCell id="YUiGV4XtN_cpStMNXlWl-34" value="Text" style="edgeLabel;html=1;align=center;verticalAlign=middle;resizable=0;points=[];" parent="YUiGV4XtN_cpStMNXlWl-21" vertex="1" connectable="0">
          <mxGeometry x="-0.0157" y="2" relative="1" as="geometry">
            <mxPoint as="offset" />
          </mxGeometry>
        </mxCell>
        <mxCell id="YUiGV4XtN_cpStMNXlWl-36" value="&lt;font style=&quot;font-size: 15px;&quot;&gt;Ödeme Onayı /&lt;/font&gt;&lt;div&gt;&lt;font style=&quot;font-size: 15px;&quot;&gt;Hata Bildirimi&lt;/font&gt;&lt;/div&gt;" style="edgeLabel;html=1;align=center;verticalAlign=middle;resizable=0;points=[];" parent="YUiGV4XtN_cpStMNXlWl-21" vertex="1" connectable="0">
          <mxGeometry x="0.0278" y="3" relative="1" as="geometry">
            <mxPoint as="offset" />
          </mxGeometry>
        </mxCell>
        <mxCell id="YUiGV4XtN_cpStMNXlWl-22" value="" style="endArrow=none;html=1;rounded=0;" parent="1" edge="1">
          <mxGeometry relative="1" as="geometry">
            <mxPoint x="80" y="590" as="sourcePoint" />
            <mxPoint x="310" y="590" as="targetPoint" />
          </mxGeometry>
        </mxCell>
        <mxCell id="YUiGV4XtN_cpStMNXlWl-47" value="&lt;span style=&quot;font-size: 15px; text-wrap-mode: wrap; background-color: rgb(236, 236, 236);&quot;&gt;Ödeme&amp;nbsp;&lt;/span&gt;&lt;div&gt;&lt;span style=&quot;font-size: 15px; text-wrap-mode: wrap; background-color: rgb(236, 236, 236);&quot;&gt;Bilgileri&lt;/span&gt;&lt;/div&gt;" style="edgeLabel;html=1;align=center;verticalAlign=middle;resizable=0;points=[];" parent="YUiGV4XtN_cpStMNXlWl-22" vertex="1" connectable="0">
          <mxGeometry x="-0.0157" relative="1" as="geometry">
            <mxPoint as="offset" />
          </mxGeometry>
        </mxCell>
        <mxCell id="YUiGV4XtN_cpStMNXlWl-23" value="" style="endArrow=none;html=1;rounded=0;" parent="1" edge="1">
          <mxGeometry relative="1" as="geometry">
            <mxPoint x="460" y="369.5" as="sourcePoint" />
            <mxPoint x="530" y="369.5" as="targetPoint" />
          </mxGeometry>
        </mxCell>
        <mxCell id="YUiGV4XtN_cpStMNXlWl-24" value="" style="endArrow=classic;html=1;rounded=0;" parent="1" edge="1">
          <mxGeometry width="50" height="50" relative="1" as="geometry">
            <mxPoint x="332" y="380" as="sourcePoint" />
            <mxPoint x="332" y="500" as="targetPoint" />
          </mxGeometry>
        </mxCell>
        <mxCell id="YUiGV4XtN_cpStMNXlWl-25" value="" style="endArrow=classic;html=1;rounded=0;entryX=0.95;entryY=-0.004;entryDx=0;entryDy=0;entryPerimeter=0;" parent="1" target="0iHUblSR0ziEXPs0jCyR-1" edge="1">
          <mxGeometry width="50" height="50" relative="1" as="geometry">
            <mxPoint x="460" y="370" as="sourcePoint" />
            <mxPoint x="460" y="480" as="targetPoint" />
          </mxGeometry>
        </mxCell>
        <mxCell id="YUiGV4XtN_cpStMNXlWl-27" value="&lt;font style=&quot;font-size: 15px;&quot;&gt;Üyelik Bilgileri&lt;/font&gt;&lt;div&gt;&lt;font style=&quot;font-size: 15px;&quot;&gt;Siparişler&lt;/font&gt;&lt;/div&gt;&lt;div&gt;&lt;font style=&quot;font-size: 15px;&quot;&gt;Bağış Talepleri&lt;/font&gt;&lt;/div&gt;&lt;div&gt;&lt;font style=&quot;font-size: 15px;&quot;&gt;Kullanıcı Yorumları&lt;/font&gt;&lt;/div&gt;" style="text;html=1;align=center;verticalAlign=middle;whiteSpace=wrap;rounded=0;" parent="1" vertex="1">
          <mxGeometry x="160" y="333.75" width="130" height="86.25" as="geometry" />
        </mxCell>
        <mxCell id="YUiGV4XtN_cpStMNXlWl-28" value="&lt;font style=&quot;font-size: 15px;&quot;&gt;Üyelik Bilgileri&lt;/font&gt;&lt;div&gt;&lt;span style=&quot;font-size: 15px;&quot;&gt;İşletme Bilgileri&lt;/span&gt;&lt;/div&gt;&lt;div&gt;&lt;div&gt;&lt;font style=&quot;font-size: 15px;&quot;&gt;Ürün Bilgileri&lt;/font&gt;&lt;/div&gt;&lt;div&gt;&lt;br&gt;&lt;/div&gt;&lt;/div&gt;" style="text;html=1;align=center;verticalAlign=middle;whiteSpace=wrap;rounded=0;" parent="1" vertex="1">
          <mxGeometry x="530" y="333.75" width="120" height="72.5" as="geometry" />
        </mxCell>
        <mxCell id="YUiGV4XtN_cpStMNXlWl-29" value="" style="endArrow=classic;html=1;rounded=0;" parent="1" edge="1">
          <mxGeometry width="50" height="50" relative="1" as="geometry">
            <mxPoint x="80" y="590" as="sourcePoint" />
            <mxPoint x="79.5" y="690" as="targetPoint" />
          </mxGeometry>
        </mxCell>
        <mxCell id="YUiGV4XtN_cpStMNXlWl-32" value="" style="endArrow=classic;html=1;rounded=0;" parent="1" edge="1">
          <mxGeometry width="50" height="50" relative="1" as="geometry">
            <mxPoint x="360" y="740" as="sourcePoint" />
            <mxPoint x="360" y="610" as="targetPoint" />
          </mxGeometry>
        </mxCell>
        <mxCell id="YUiGV4XtN_cpStMNXlWl-37" value="" style="endArrow=classic;html=1;rounded=0;" parent="1" edge="1">
          <mxGeometry width="50" height="50" relative="1" as="geometry">
            <mxPoint x="440" y="740" as="sourcePoint" />
            <mxPoint x="440" y="610" as="targetPoint" />
          </mxGeometry>
        </mxCell>
        <mxCell id="YUiGV4XtN_cpStMNXlWl-39" value="" style="endArrow=classic;html=1;rounded=0;" parent="1" edge="1">
          <mxGeometry width="50" height="50" relative="1" as="geometry">
            <mxPoint x="80" y="510" as="sourcePoint" />
            <mxPoint x="79.5" y="420" as="targetPoint" />
          </mxGeometry>
        </mxCell>
        <mxCell id="YUiGV4XtN_cpStMNXlWl-40" value="" style="endArrow=none;html=1;rounded=0;" parent="1" edge="1">
          <mxGeometry width="50" height="50" relative="1" as="geometry">
            <mxPoint x="280" y="510" as="sourcePoint" />
            <mxPoint x="310" y="510" as="targetPoint" />
            <Array as="points">
              <mxPoint x="310" y="510" />
            </Array>
          </mxGeometry>
        </mxCell>
        <mxCell id="YUiGV4XtN_cpStMNXlWl-41" value="" style="endArrow=none;html=1;rounded=0;" parent="1" edge="1">
          <mxGeometry width="50" height="50" relative="1" as="geometry">
            <mxPoint x="470" y="600" as="sourcePoint" />
            <mxPoint x="550" y="600" as="targetPoint" />
            <Array as="points" />
          </mxGeometry>
        </mxCell>
        <mxCell id="YUiGV4XtN_cpStMNXlWl-42" value="" style="endArrow=classic;html=1;rounded=0;entryX=0.312;entryY=-0.04;entryDx=0;entryDy=0;entryPerimeter=0;" parent="1" target="kWebN6xR-7z7xlQ7EnBQ-5" edge="1">
          <mxGeometry width="50" height="50" relative="1" as="geometry">
            <mxPoint x="720" y="600" as="sourcePoint" />
            <mxPoint x="770" y="550" as="targetPoint" />
          </mxGeometry>
        </mxCell>
        <mxCell id="YUiGV4XtN_cpStMNXlWl-43" value="" style="endArrow=classic;html=1;rounded=0;" parent="1" edge="1">
          <mxGeometry width="50" height="50" relative="1" as="geometry">
            <mxPoint x="750" y="520" as="sourcePoint" />
            <mxPoint x="750" y="430" as="targetPoint" />
          </mxGeometry>
        </mxCell>
        <mxCell id="YUiGV4XtN_cpStMNXlWl-44" value="" style="endArrow=none;html=1;rounded=0;" parent="1" edge="1">
          <mxGeometry width="50" height="50" relative="1" as="geometry">
            <mxPoint x="710" y="520" as="sourcePoint" />
            <mxPoint x="750" y="520" as="targetPoint" />
          </mxGeometry>
        </mxCell>
        <mxCell id="2nRriRmlrzgPy1WAfko9-4" value="" style="endArrow=none;html=1;rounded=0;" edge="1" parent="1">
          <mxGeometry width="50" height="50" relative="1" as="geometry">
            <mxPoint x="440" y="739.5" as="sourcePoint" />
            <mxPoint x="510" y="740" as="targetPoint" />
          </mxGeometry>
        </mxCell>
        <mxCell id="2nRriRmlrzgPy1WAfko9-5" value="" style="endArrow=none;html=1;rounded=0;" edge="1" parent="1">
          <mxGeometry width="50" height="50" relative="1" as="geometry">
            <mxPoint x="80" y="510" as="sourcePoint" />
            <mxPoint x="140" y="510" as="targetPoint" />
          </mxGeometry>
        </mxCell>
        <mxCell id="2nRriRmlrzgPy1WAfko9-6" value="" style="endArrow=none;html=1;rounded=0;" edge="1" parent="1">
          <mxGeometry width="50" height="50" relative="1" as="geometry">
            <mxPoint x="470" y="520" as="sourcePoint" />
            <mxPoint x="560" y="520" as="targetPoint" />
          </mxGeometry>
        </mxCell>
        <mxCell id="2nRriRmlrzgPy1WAfko9-8" value="&lt;font style=&quot;font-size: 15px;&quot;&gt;Sipariş Bilgisi&lt;/font&gt;&lt;div&gt;&lt;font style=&quot;font-size: 15px;&quot;&gt;Kullanıcı Geri Bildirim&lt;/font&gt;&lt;/div&gt;" style="text;html=1;align=center;verticalAlign=middle;whiteSpace=wrap;rounded=0;" vertex="1" parent="1">
          <mxGeometry x="560" y="490" width="150" height="50" as="geometry" />
        </mxCell>
        <mxCell id="2nRriRmlrzgPy1WAfko9-11" value="&lt;font style=&quot;font-size: 15px;&quot;&gt;Ürün Bilgileri&amp;nbsp;&lt;/font&gt;&lt;div&gt;&lt;font style=&quot;font-size: 15px;&quot;&gt;İşletme Bilgileri&lt;/font&gt;&lt;/div&gt;" style="text;html=1;align=center;verticalAlign=middle;whiteSpace=wrap;rounded=0;" vertex="1" parent="1">
          <mxGeometry x="140" y="470" width="140" height="80" as="geometry" />
        </mxCell>
        <mxCell id="2nRriRmlrzgPy1WAfko9-12" value="" style="endArrow=none;html=1;rounded=0;" edge="1" parent="1">
          <mxGeometry width="50" height="50" relative="1" as="geometry">
            <mxPoint x="670" y="600" as="sourcePoint" />
            <mxPoint x="720" y="600" as="targetPoint" />
          </mxGeometry>
        </mxCell>
        <mxCell id="2nRriRmlrzgPy1WAfko9-13" value="&lt;font style=&quot;font-size: 15px;&quot;&gt;İşletme kimlik ve Yetki Belgeleri&lt;/font&gt;" style="text;html=1;align=center;verticalAlign=middle;whiteSpace=wrap;rounded=0;" vertex="1" parent="1">
          <mxGeometry x="550" y="570" width="120" height="70" as="geometry" />
        </mxCell>
        <mxCell id="2nRriRmlrzgPy1WAfko9-15" value="&lt;font style=&quot;font-size: 15px;&quot;&gt;Mevzuat ve Düzenlemer&lt;/font&gt;" style="text;html=1;align=center;verticalAlign=middle;whiteSpace=wrap;rounded=0;" vertex="1" parent="1">
          <mxGeometry x="520" y="717.5" width="130" height="42.5" as="geometry" />
        </mxCell>
      </root>
    </mxGraphModel>
  </diagram>
</mxfile>
